<svg width="79" height="79" viewBox="0 0 79 79" fill="none" xmlns="http://www.w3.org/2000/svg">
<path d="M76.3632 34.1399L71.0524 27.9699C70.0371 26.7983 69.217 24.6115 69.217 23.0495V16.4109C69.217 12.2716 65.8196 8.87421 61.6803 8.87421H55.0417C53.5187 8.87421 51.2929 8.05415 50.1214 7.03884L43.9514 1.72798C41.2569 -0.575993 36.8442 -0.575993 34.1107 1.72798L27.9796 7.07789C26.8081 8.05415 24.5822 8.87421 23.0593 8.87421H16.3035C12.1642 8.87421 8.76682 12.2716 8.76682 16.4109V23.0886C8.76682 24.6115 7.94676 26.7983 6.9705 27.9699L1.69869 34.1789C-0.566231 36.8734 -0.566231 41.247 1.69869 43.9415L6.9705 50.1505C7.94676 51.322 8.76682 53.5089 8.76682 55.0318V61.7095C8.76682 65.8488 12.1642 69.2462 16.3035 69.2462H23.0593C24.5822 69.2462 26.8081 70.0662 27.9796 71.0816L34.1497 76.3924C36.8442 78.6964 41.2569 78.6964 43.9904 76.3924L50.1604 71.0816C51.3319 70.0662 53.5187 69.2462 55.0808 69.2462H61.7193C65.8587 69.2462 69.2561 65.8488 69.2561 61.7095V55.0709C69.2561 53.5479 70.0761 51.322 71.0914 50.1505L76.4023 43.9806C78.6672 41.2861 78.6672 36.8343 76.3632 34.1399ZM55.276 31.6797L36.4147 50.541C35.868 51.0877 35.126 51.4001 34.345 51.4001C33.564 51.4001 32.822 51.0877 32.2753 50.541L22.825 41.0908C21.6925 39.9584 21.6925 38.084 22.825 36.9515C23.9574 35.819 25.8318 35.819 26.9643 36.9515L34.345 44.332L51.1367 27.5403C52.2691 26.4078 54.1436 26.4078 55.276 27.5403C56.4085 28.6728 56.4085 30.5472 55.276 31.6797Z" fill="#9EFF00"/>
</svg>
